Coordinates
version=1
nRows=5
nColumns=63
inDegrees=yes

Units are S.I. units (second, meters, Newtons, ...)
If the header above contains a line with 'inDegrees', this indicates whether rotational values are in degrees (yes) or radians (no).

endheader
time	pelvis_tilt	pelvis_list	pelvis_rotation	pelvis_tx	pelvis_ty	pelvis_tz	hip_flexion_r	hip_adduction_r	hip_rotation_r	knee_angle_r	knee_angle_r_beta	ankle_angle_r	subtalar_angle_r	mtp_angle_r	hip_flexion_l	hip_adduction_l	hip_rotation_l	knee_angle_l	knee_angle_l_beta	ankle_angle_l	subtalar_angle_l	mtp_angle_l	L5_S1_Flex_Ext	L5_S1_Lat_Bending	L5_S1_axial_rotation	L4_L5_Flex_Ext	L4_L5_Lat_Bending	L4_L5_axial_rotation	L3_L4_Flex_Ext	L3_L4_Lat_Bending	L3_L4_axial_rotation	L2_L3_Flex_Ext	L2_L3_Lat_Bending	L2_L3_axial_rotation	L1_L2_Flex_Ext	L1_L2_Lat_Bending	L1_L2_axial_rotation	L1_T12_Flex_Ext	L1_T12_Lat_Bending	L1_T12_axial_rotation	Abs_r3	Abs_r2	Abs_r1	Abs_t1	Abs_t2	neck_flexion	neck_bending	neck_rotation	arm_flex_r	arm_add_r	arm_rot_r	elbow_flex_r	pro_sup_r	wrist_flex_r	wrist_dev_r	arm_flex_l	arm_add_l	arm_rot_l	elbow_flex_l	pro_sup_l	wrist_flex_l	wrist_dev_l
      2.26666667	     -8.26075463	     -5.81685660	     89.01450242	      0.20474008	      0.84803224	      0.59203194	      0.21432695	     -9.40244558	    -15.34862442	      5.00711778	      0.08739069	      9.00228951	     13.60551733	      0.00000000	      2.40524350	      6.78544173	     -0.58947789	      4.40122815	      0.07681592	     -6.18077726	     -2.00286526	      0.00000000	      0.03144310	     -1.36587622	      0.22719237	      0.05839299	     -1.81661537	      0.24139189	      0.05165788	     -3.32099143	      0.24139189	      0.03593632	     -3.32099143	      0.19879332	      0.02919807	     -2.78529478	      0.18459380	      0.01796659	     -2.11574226	      0.17039427	      0.22459495	    -15.45106495	      1.26357578	      0.00000000	      0.00000000	     25.18095133	      3.73723966	    -29.16301008	     51.33488645	     15.42993895	      4.41877831	    146.16587206	     88.94775629	     21.72269027	     34.27918868	      8.28713472	    -21.26276381	     57.36607253	     26.26838107	     84.01808182	    -13.02714629	     -5.14819023
      2.28333333	     -8.27608009	     -5.94104266	     88.72933803	      0.20476626	      0.84824168	      0.59261357	      0.50974996	     -9.43530849	    -14.85338312	      5.07480638	      0.08857208	      8.70220601	     13.25493600	      0.00000000	      2.51524381	      6.88175030	      0.80310250	      4.31304225	      0.07527679	     -7.67983505	     -5.30431992	      0.00000000	      0.03217441	     -1.35718058	      0.27968115	      0.05975109	     -1.80505017	      0.29716123	      0.05285933	     -3.29984886	      0.29716123	      0.03677213	     -3.29984886	      0.24472101	      0.02987715	     -2.76756264	      0.22724094	      0.01838446	     -2.10227272	      0.20976087	      0.22981857	    -15.35269814	      1.55550268	      0.00000000	      0.00000000	     25.12718393	      4.05099568	    -27.95124092	     51.00101344	     15.69955731	      4.43921558	    146.60015586	     88.95308007	     22.34231888	     34.25988484	      8.26082258	    -21.34154867	     56.40750657	     27.02442846	     84.81610927	    -13.08433566	     -4.57994261
      2.30000000	     -8.32128205	     -6.01484862	     88.34380043	      0.20482072	      0.84825469	      0.59312862	      0.78656767	     -9.52452424	    -14.49985017	      5.19103590	      0.09060067	      8.53444325	     13.27768555	      0.00000000	      2.59511515	      7.00012213	      1.35060190	      4.26827577	      0.07449547	     -8.58315624	     -7.46277714	      0.00000000	      0.03211720	     -1.35211320	      0.35586767	      0.05964485	     -1.79831055	      0.37810940	      0.05276535	     -3.28752803	      0.37810940	      0.03670675	     -3.28752803	      0.31138422	      0.02982403	     -2.75722923	      0.28914249	      0.01835177	     -2.09442334	      0.26690076	      0.22940995	    -15.29537491	      1.97922925	      0.00000000	      0.00000000	     25.20745229	      4.82833306	    -26.39179988	     50.59756178	     15.97084836	      4.19974404	    146.87066205	     88.96935090	     22.95411432	     34.22712202	      8.28851511	    -21.35418517	     55.69369599	     27.76782693	     85.17996201	    -13.31052413	     -3.35446681
      2.31666667	     -8.31372564	     -6.11376968	     88.17968130	      0.20459477	      0.84786392	      0.59361436	      0.99008192	     -9.52554679	    -13.97508717	      5.22197116	      0.09114059	      8.43452455	     12.77139429	      0.00000000	      2.62657018	      7.11372526	      3.25263243	      4.06887213	      0.07101522	     -9.52896575	    -10.81142415	      0.00000000	      0.03717981	     -1.34472264	      0.40022174	      0.06904663	     -1.78848111	      0.42523560	      0.06108271	     -3.26955862	      0.42523560	      0.04249280	     -3.26955862	      0.35019402	      0.03452517	     -2.74215840	      0.32518016	      0.02124454	     -2.08297537	      0.30016630	      0.26557167	    -15.21177142	      2.22591323	      0.00000000	      0.00000000	     25.26056207	      5.43763408	    -25.26750581	     50.33149172	     16.24021255	      3.49687749	    146.88694946	     88.98887723	     24.20615418	     34.20211232	      8.07284368	    -21.23060046	     53.70107816	     28.48786978	     85.26291440	    -12.64126035	     -2.25658480
      2.33333333	     -8.39453011	     -6.22906830	     87.92026389	      0.20468553	      0.84718626	      0.59389029	      1.25425333	     -9.64607010	    -13.76301199	      5.35711816	      0.09349935	      8.50430910	     12.86992045	      0.00000000	      2.76962700	      7.23196110	      3.32608615	      4.07987150	      0.07120719	     -9.40925575	    -11.41772212	      0.00000000	      0.04980987	     -1.35268713	      0.49432473	      0.09250191	     -1.79907388	      0.52522002	      0.08183264	     -3.28892348	      0.52522002	      0.05692770	     -3.28892348	      0.43253414	      0.04625345	     -2.75839959	      0.40163884	      0.02846136	     -2.09531236	      0.37074355	      0.35578692	    -15.30186732	      2.74928584	      0.00000000	      0.00000000	     25.43495581	      6.10482657	    -24.63387051	     50.10920300	     16.33441429	      2.85318357	    146.81520225	     89.01999472	     24.18323444	     34.16272749	      8.14301459	    -21.16775049	     52.99952979	     29.09901779	     84.59539366	    -12.49372343	     -1.23592084
